<svg width="300" height="300" viewBox="0 0 300 300" fill="none" xmlns="http://www.w3.org/2000/svg">
<g clip-path="url(#clip0_20_611)">
<path d="M118.75 81.25V118.75H81.25V81.25H118.75ZM137.5 62.5H62.5V137.5H137.5V62.5ZM118.75 181.25V218.75H81.25V181.25H118.75ZM137.5 162.5H62.5V237.5H137.5V162.5ZM218.75 81.25V118.75H181.25V81.25H218.75ZM237.5 62.5H162.5V137.5H237.5V62.5ZM162.5 162.5H181.25V181.25H162.5V162.5ZM181.25 181.25H200V200H181.25V181.25ZM200 162.5H218.75V181.25H200V162.5ZM162.5 200H181.25V218.75H162.5V200ZM181.25 218.75H200V237.5H181.25V218.75ZM200 200H218.75V218.75H200V200ZM218.75 181.25H237.5V200H218.75V181.25ZM218.75 218.75H237.5V237.5H218.75V218.75ZM275 87.5H250V50H212.5V25H275V87.5ZM275 275V212.5H250V250H212.5V275H275ZM25 275H87.5V250H50V212.5H25V275ZM25 25V87.5H50V50H87.5V25H25Z" fill="url(#paint0_radial_20_611)"/>
</g>
<rect x="0.5" y="0.5" width="299" height="299" rx="3.5" stroke="#6272A4"/>
<defs>
<radialGradient id="paint0_radial_20_611" cx="0" cy="0" r="1" gradientUnits="userSpaceOnUse" gradientTransform="translate(42.5 42.5) rotate(45.5244) scale(309.019)">
<stop stop-color="#6272A4"/>
<stop offset="1" stop-color="#9CB4FF"/>
</radialGradient>
<clipPath id="clip0_20_611">
<rect width="300" height="300" rx="4" fill="white"/>
</clipPath>
</defs>
</svg>
